<?xml version="1.0" standalone="no"?>
<!DOCTYPE svg PUBLIC "-//W3C//DTD SVG 20010904//EN"
 "http://www.w3.org/TR/2001/REC-SVG-20010904/DTD/svg10.dtd">
<svg version="1.0" xmlns="http://www.w3.org/2000/svg"
 width="512.000000pt" height="512.000000pt" viewBox="0 0 512.000000 512.000000"
 preserveAspectRatio="xMidYMid meet">

<g transform="translate(0.000000,512.000000) scale(0.100000,-0.100000)"
fill="#000000" stroke="none">
<path d="M798 5110 c-56 -17 -553 -324 -600 -371 -138 -138 -192 -314 -192
-629 0 -200 16 -322 69 -515 177 -643 644 -1342 1411 -2109 768 -768 1465
-1234 2109 -1411 193 -53 315 -69 515 -69 315 0 491 54 629 192 30 30 105 143
210 318 144 241 163 277 168 326 7 72 -26 150 -83 195 -81 63 -1101 737 -1134
749 -70 26 -157 12 -210 -33 -17 -14 -109 -126 -205 -248 -109 -139 -189 -232
-213 -247 -30 -19 -51 -23 -112 -23 l-75 0 -140 79 c-296 165 -520 343 -868
685 -393 387 -626 683 -807 1026 -39 74 -42 85 -38 145 2 46 10 76 26 103 15
23 108 103 247 212 122 96 234 188 248 205 45 53 59 140 33 210 -12 33 -686
1053 -749 1134 -54 68 -157 101 -239 76z"/>
<path d="M2854 4475 c-20 -20 -25 -33 -22 -67 5 -65 31 -79 174 -89 376 -26
686 -164 952 -423 271 -263 424 -599 451 -990 8 -113 10 -122 35 -143 46 -40
107 -28 136 26 24 47 -5 313 -54 487 -112 399 -368 740 -723 967 -245 156
-580 257 -856 257 -59 0 -71 -3 -93 -25z"/>
<path d="M2854 3945 c-20 -20 -25 -33 -22 -67 5 -62 30 -76 160 -88 352 -33
641 -232 794 -545 53 -110 82 -217 94 -355 8 -95 11 -107 35 -127 50 -44 125
-20 141 43 16 64 -20 286 -66 411 -28 75 -83 183 -126 250 -51 78 -234 260
-314 312 -180 117 -414 191 -603 191 -59 0 -71 -3 -93 -25z"/>
<path d="M2855 3415 c-18 -17 -25 -35 -25 -64 0 -52 31 -77 108 -86 122 -14
212 -56 290 -136 76 -77 104 -145 128 -303 13 -93 120 -119 162 -39 28 52 -2
217 -58 322 -105 196 -319 331 -526 331 -45 0 -59 -4 -79 -25z"/>
</g>
</svg>
