<?xml version="1.0" standalone="no"?>
<!DOCTYPE svg PUBLIC "-//W3C//DTD SVG 20010904//EN"
 "http://www.w3.org/TR/2001/REC-SVG-20010904/DTD/svg10.dtd">
<svg version="1.0" xmlns="http://www.w3.org/2000/svg"
 width="227.000000pt" height="34.000000pt" viewBox="0 0 227.000000 34.000000"
 preserveAspectRatio="xMidYMid meet">

<g transform="translate(0.000000,34.000000) scale(0.100000,-0.100000)"
fill="#000000" stroke="none">
<path d="M225 298 c-2 -7 -6 -34 -10 -59 -5 -42 -9 -47 -37 -53 -17 -3 -46 -6
-66 -6 -34 0 -34 1 -27 33 11 48 11 72 0 76 -11 4 -48 -205 -40 -227 9 -25 25
-1 25 37 0 51 14 61 83 61 l59 0 -7 -56 c-5 -45 -4 -55 7 -52 14 5 21 44 33
176 5 59 4 82 -4 82 -7 0 -13 -6 -16 -12z"/>
<path d="M2087 303 c-4 -3 -7 -18 -7 -32 -1 -14 -7 -39 -14 -56 -12 -29 -13
-29 -20 -7 -12 36 -41 26 -87 -30 -52 -65 -79 -87 -101 -88 -27 0 -33 45 -15
128 17 75 16 95 -3 76 -14 -14 -34 -156 -26 -187 9 -38 49 -46 86 -18 l29 21
3 -23 c5 -36 35 -32 80 12 22 23 42 41 44 41 2 0 4 -8 4 -18 0 -10 6 -27 14
-37 12 -17 17 -18 37 -7 62 34 92 73 106 140 7 36 11 67 9 70 -9 9 -26 -10
-26 -29 0 -57 -23 -111 -59 -135 -19 -13 -41 -24 -47 -24 -23 0 -25 76 -4 142
11 34 20 64 20 66 0 5 -17 2 -23 -5z m-46 -126 c6 -21 1 -32 -29 -61 -65 -65
-85 -34 -31 48 34 51 49 54 60 13z"/>
<path d="M496 292 c-2 -4 -10 -38 -16 -75 -10 -56 -17 -71 -46 -97 -44 -38
-80 -48 -102 -26 -15 15 -13 19 22 55 43 44 46 76 7 76 -47 0 -81 -113 -45
-149 24 -25 59 -19 108 19 30 23 46 30 46 21 0 -21 28 -46 52 -46 11 0 35 15
53 33 l33 33 6 -28 c8 -38 48 -48 85 -20 27 20 28 20 39 1 7 -11 23 -19 38
-19 30 0 84 50 84 78 0 17 5 19 43 15 29 -4 46 -1 54 8 9 12 3 14 -37 14 -32
0 -54 6 -68 18 -29 26 -49 17 -115 -53 -92 -96 -124 -73 -94 68 9 42 15 77 13
80 -12 11 -26 -13 -32 -56 -9 -66 -18 -84 -54 -120 -76 -77 -99 -12 -54 156 6
21 -9 32 -20 14z m-126 -95 c0 -8 -11 -24 -25 -37 -29 -27 -31 -21 -10 20 16
31 35 40 35 17z m461 -17 c27 -15 24 -45 -7 -69 -53 -42 -81 -13 -43 44 27 40
24 38 50 25z"/>
<path d="M1488 197 c-32 -19 -41 -20 -69 -10 -17 7 -36 10 -40 7 -5 -2 -16
-29 -25 -59 -10 -30 -21 -55 -25 -55 -7 0 -21 39 -34 93 -8 37 -26 23 -50 -38
-9 -25 -20 -45 -25 -45 -5 0 -12 23 -17 52 -9 59 -29 66 -26 9 2 -42 27 -111
41 -111 5 0 19 23 32 50 l24 51 20 -43 c12 -23 27 -44 33 -46 7 -2 23 20 37
52 23 52 27 56 60 56 34 0 34 0 23 -29 -13 -36 3 -61 40 -61 31 0 83 51 83 80
0 16 4 20 16 16 9 -3 25 -6 37 -6 20 0 22 -4 19 -55 -5 -67 18 -77 36 -16 15
48 57 91 89 91 14 0 21 4 18 10 -13 21 -50 8 -86 -29 l-37 -40 9 35 c12 42 2
65 -17 39 -10 -13 -21 -16 -47 -11 -19 4 -40 13 -47 21 -16 20 -28 18 -72 -8z
m53 -17 c27 -15 24 -45 -7 -69 -53 -42 -81 -13 -43 44 27 40 24 38 50 25z"/>
<path d="M966 88 c5 -17 0 -27 -22 -45 -21 -17 -25 -23 -12 -23 9 0 29 10 44
23 20 18 25 29 20 45 -4 12 -14 22 -22 22 -11 0 -13 -6 -8 -22z"/>
<path d="M2175 90 c-8 -13 4 -32 16 -25 12 8 12 35 0 35 -6 0 -13 -4 -16 -10z"/>
</g>
</svg>
