<?xml version="1.0" standalone="no"?>
<!DOCTYPE svg PUBLIC "-//W3C//DTD SVG 20010904//EN"
 "http://www.w3.org/TR/2001/REC-SVG-20010904/DTD/svg10.dtd">
<svg version="1.0" xmlns="http://www.w3.org/2000/svg"
 width="512.000000pt" height="512.000000pt" viewBox="0 0 512.000000 512.000000"
 preserveAspectRatio="xMidYMid meet">

<g transform="translate(0.000000,512.000000) scale(0.100000,-0.100000)"
fill="#000000" stroke="none">
<path d="M50 4467 c-13 -7 -30 -24 -37 -37 -10 -20 -12 -405 -10 -1882 l2
-1857 23 -23 23 -23 2509 0 2509 0 23 23 23 23 0 1869 0 1869 -23 23 -23 23
-2497 2 c-1990 2 -2502 0 -2522 -10z m266 -184 c17 -10 505 -416 1083 -903
579 -487 1069 -893 1089 -902 20 -10 53 -17 72 -17 19 0 52 7 72 17 20 9 510
415 1089 902 579 487 1061 891 1071 899 57 40 142 -4 142 -74 0 -27 -8 -44
-35 -70 -18 -18 -506 -430 -1083 -914 -709 -595 -1067 -890 -1105 -909 -49
-24 -68 -27 -151 -27 -83 0 -102 3 -151 27 -38 19 -396 314 -1105 909 -577
484 -1065 896 -1083 914 -41 40 -47 90 -16 126 37 40 68 46 111 22z m1283
-1918 c32 -16 54 -65 45 -100 -8 -34 -1313 -1427 -1346 -1439 -62 -22 -134 51
-112 112 10 28 1283 1399 1324 1425 31 21 53 21 89 2z m2009 -1 c23 -14 1170
-1235 1285 -1368 29 -33 39 -54 40 -80 2 -61 -61 -108 -117 -86 -30 11 -1324
1394 -1337 1429 -13 34 7 88 39 106 35 19 58 19 90 -1z"/>
</g>
</svg>
